<?xml version="1.0" encoding="UTF-8" standalone="no"?>
<svg
   xmlns:dc="http://purl.org/dc/elements/1.1/"
   xmlns:cc="http://creativecommons.org/ns#"
   xmlns:rdf="http://www.w3.org/1999/02/22-rdf-syntax-ns#"
   xmlns:svg="http://www.w3.org/2000/svg"
   xmlns="http://www.w3.org/2000/svg"
   xmlns:sodipodi="http://sodipodi.sourceforge.net/DTD/sodipodi-0.dtd"
   xmlns:inkscape="http://www.inkscape.org/namespaces/inkscape"
   version="1.1"
   id="svg2"
   xml:space="preserve"
   width="120"
   height="40"
   viewBox="0 0 120 40.000001"
   sodipodi:docname="asus_w.svg"
   inkscape:version="1.0.1 (3bc2e813f5, 2020-09-07)"><metadata
     id="metadata8"><rdf:RDF><cc:Work
         rdf:about=""><dc:format>image/svg+xml</dc:format><dc:type
           rdf:resource="http://purl.org/dc/dcmitype/StillImage" /><dc:title></dc:title></cc:Work></rdf:RDF></metadata><defs
     id="defs6" /><sodipodi:namedview
     pagecolor="#ffffff"
     bordercolor="#666666"
     borderopacity="1"
     objecttolerance="10"
     gridtolerance="10"
     guidetolerance="10"
     inkscape:pageopacity="0"
     inkscape:pageshadow="2"
     inkscape:window-width="2560"
     inkscape:window-height="1361"
     id="namedview4"
     inkscape:document-rotation="0"
     showgrid="false"
     inkscape:zoom="3.8969074"
     inkscape:cx="129.33333"
     inkscape:cy="129.33333"
     inkscape:window-x="2551"
     inkscape:window-y="-9"
     inkscape:window-maximized="1"
     inkscape:current-layer="g10" /><g
     id="g10"
     inkscape:groupmode="layer"
     inkscape:label="ink_ext_XXXXXX"
     transform="matrix(1.3333333,0,0,-1.3333333,0,258.66667)"><g
       id="g1417"
       transform="matrix(0.43046721,0,0,0.43046721,3.4006117,137.26839)"
       style="fill:#ffffff"><path
         d="m 185.793,114.896 c 0.737,0 1.456,-0.189 2.159,-0.566 0.701,-0.38 1.25,-0.92 1.641,-1.625 0.391,-0.703 0.588,-1.438 0.588,-2.203 0,-0.757 -0.193,-1.484 -0.58,-2.181 -0.385,-0.7 -0.928,-1.242 -1.623,-1.627 -0.697,-0.387 -1.424,-0.58 -2.185,-0.58 -0.761,0 -1.49,0.193 -2.185,0.58 -0.697,0.385 -1.24,0.927 -1.627,1.627 -0.389,0.697 -0.582,1.424 -0.582,2.181 0,0.765 0.197,1.5 0.59,2.203 0.393,0.705 0.941,1.245 1.645,1.625 0.701,0.377 1.422,0.566 2.159,0.566 z m 0,-0.727 c -0.618,0 -1.218,-0.159 -1.802,-0.475 -0.584,-0.316 -1.041,-0.769 -1.37,-1.355 -0.33,-0.588 -0.495,-1.2 -0.495,-1.837 0,-0.632 0.163,-1.238 0.487,-1.818 0.323,-0.58 0.776,-1.033 1.358,-1.356 0.583,-0.324 1.188,-0.487 1.822,-0.487 0.632,0 1.239,0.163 1.821,0.487 0.582,0.323 1.033,0.776 1.355,1.356 0.322,0.58 0.483,1.186 0.483,1.818 0,0.637 -0.163,1.249 -0.491,1.837 -0.327,0.586 -0.784,1.039 -1.37,1.355 -0.586,0.316 -1.186,0.475 -1.798,0.475 z m -1.927,-6.092 v 4.723 h 1.623 c 0.556,0 0.957,-0.042 1.206,-0.129 0.248,-0.087 0.445,-0.24 0.594,-0.457 0.147,-0.218 0.22,-0.449 0.22,-0.693 0,-0.346 -0.123,-0.646 -0.369,-0.902 -0.247,-0.256 -0.574,-0.399 -0.981,-0.431 0.166,-0.07 0.302,-0.153 0.401,-0.25 0.19,-0.187 0.423,-0.499 0.699,-0.938 l 0.576,-0.923 h -0.931 l -0.42,0.744 c -0.33,0.584 -0.594,0.952 -0.796,1.099 -0.14,0.109 -0.344,0.163 -0.612,0.163 h -0.447 v -2.006 z m 0.763,2.657 h 0.925 c 0.441,0 0.743,0.068 0.905,0.199 0.16,0.131 0.242,0.306 0.242,0.524 0,0.139 -0.04,0.264 -0.117,0.376 -0.078,0.109 -0.185,0.192 -0.322,0.246 -0.139,0.056 -0.394,0.082 -0.767,0.082 h -0.866 v -1.427"
         style="fill:#ffffff;fill-opacity:1;fill-rule:evenodd;stroke:none;stroke-width:0.1"
         id="path16" /><path
         d="m 101.124,115.185 h 0.147 V 105.089 H 91.0707 v 10.096 z M 56.7332,93.8355 80.3238,92.3723 c 0.9809,0 1.7832,-0.8024 1.7832,-1.7832 v -4e-4 c 0,-0.9809 -0.8019,-1.7832 -1.7832,-1.7832 H 46.7027 v 13.1425 c 1.0332,-4.0578 4.5887,-7.3777 10.0305,-8.1125 z M 46.7027,78.6539 h 34.3719 c 5.0106,0 9.2172,3.6145 10.1438,8.3641 0.8175,-4.734 4.9589,-8.3641 9.9056,-8.3641 h 21.962 c 4.907,0 9.021,3.5723 9.885,8.25 v -8.25 h 35.21 c 5.684,0 10.334,4.6504 10.334,10.3344 v 1.4633 c 0,5.6839 -4.65,10.3344 -10.334,10.3344 l -1.931,0.085 c -10.956,0.482 -21.877,1.034 -32.819,1.599 0.852,-4.2934 4.476,-7.8684 10.149,-8.6345 l 23.85,-1.4632 c 0.981,0 1.784,-0.8024 1.784,-1.7832 v -4e-4 c 0,-0.9809 -0.802,-1.7832 -1.784,-1.7832 h -34.291 v 13.6785 l -10.2,0.527 V 91.3109 c 0,-1.6375 -1.339,-2.9769 -2.977,-2.9769 h -15.714 c -1.638,0 -2.977,1.3394 -2.977,2.9769 v 12.8181 l -10.2003,0.526 V 93.057 c -1.166,4.3875 -5.2156,7.551 -9.9961,7.551 L 36.152,103.545 V 78.6539 h 9.7125 z m 42.7477,26.4301 v 10.152 H 56.7332 c -4.8297,0 -8.9121,-3.357 -10.0305,-7.854 v 7.804 H 27.1738 L 20.5184,105.089 H 46.4012 Z M 31.8438,103.794 15.7125,78.6539 H 3.09453 L 20.1117,104.471 Z m 146.6712,1.29 v 10.152 H 143.58 c -5.621,0 -10.231,-4.549 -10.332,-10.147 z m -55.576,0.005 v 10.096 h 10.2 v -10.096 h -10.2"
         style="fill:#ffffff;fill-opacity:1;fill-rule:evenodd;stroke:none;stroke-width:0.1"
         id="path18" /></g></g></svg>
