<?xml version="1.0" encoding="UTF-8" standalone="no"?>
<svg
   xmlns:dc="http://purl.org/dc/elements/1.1/"
   xmlns:cc="http://creativecommons.org/ns#"
   xmlns:rdf="http://www.w3.org/1999/02/22-rdf-syntax-ns#"
   xmlns:svg="http://www.w3.org/2000/svg"
   xmlns="http://www.w3.org/2000/svg"
   xmlns:sodipodi="http://sodipodi.sourceforge.net/DTD/sodipodi-0.dtd"
   xmlns:inkscape="http://www.inkscape.org/namespaces/inkscape"
   version="1.1"
   width="120"
   height="40"
   id="svg867"
   viewBox="0 0 120 40"
   sodipodi:docname="infinix.com.svg"
   inkscape:version="1.0.1 (3bc2e813f5, 2020-09-07)">
  <metadata
     id="metadata873">
    <rdf:RDF>
      <cc:Work
         rdf:about="">
        <dc:format>image/svg+xml</dc:format>
        <dc:type
           rdf:resource="http://purl.org/dc/dcmitype/StillImage" />
        <dc:title></dc:title>
      </cc:Work>
    </rdf:RDF>
  </metadata>
  <defs
     id="defs871" />
  <sodipodi:namedview
     pagecolor="#ffffff"
     bordercolor="#666666"
     borderopacity="1"
     objecttolerance="10"
     gridtolerance="10"
     guidetolerance="10"
     inkscape:pageopacity="0"
     inkscape:pageshadow="2"
     inkscape:window-width="2560"
     inkscape:window-height="1361"
     id="namedview869"
     showgrid="false"
     inkscape:zoom="4.8214286"
     inkscape:cx="126"
     inkscape:cy="72"
     inkscape:window-x="2871"
     inkscape:window-y="-9"
     inkscape:window-maximized="1"
     inkscape:current-layer="svg867" />
  <path
     d="m 13.698976,33.905136 4.049311,0.04566 c 0.339606,-1.91373 0.0824,-8.916577 0.07589,-11.325839 -0.0123,-5.128068 1.587494,-4.372914 6.236582,-4.372914 4.346986,0 6.347837,-0.809285 6.333357,4.17419 -0.0058,2.023639 -0.212408,10.187561 0.107668,11.527124 l 3.873728,-0.01023 c 0.289758,-2.443092 0.04917,-7.270943 0.04917,-9.939826 0,-3.224458 0.504353,-9.105182 -4.194581,-9.930499 -1.170593,-0.205491 -3.073105,-0.07699 -4.318859,-0.07699 -2.396033,0 -6.493784,-0.598734 -7.907152,0.992831 -0.669834,-1.23045 0.940057,-0.997894 -4.290682,-0.976741 z m 72.214384,-23.649567 4.1339,-0.01267 0.02672,-3.9593739 -0.0015,-0.2502955 -4.165619,7.924e-4 z m -33.086095,-0.04486 0.842553,0.03895 2.523956,-0.006 0.812186,-0.01945 0.01948,-0.9877099 -0.0036,-2.3627499 0.0036,-0.8084312 -4.205415,-0.026212 z m 33.185841,23.708818 4.05728,0.02622 0.05782,-19.894038 -4.097751,-0.05072 z m -33.185841,0.01603 3.968421,0.01523 c 0.35549,-1.725123 0.195064,-17.315615 0.06865,-19.970112 L 52.84461,13.967995 Z M 5.6039491,33.96348 9.5297105,33.949891 C 9.7717567,32.791376 9.6879488,10.926917 9.6084705,8.2225561 L 5.5237404,8.2132261 C 5.4746254,11.306614 5.3387281,32.576546 5.6039502,33.963413 Z M 39.297736,13.89357 34.140701,13.9705 c 1.691561,2.345865 0.953079,0.636772 2.312954,4.293427 h 2.824548 l -0.0079,15.642062 4.055094,0.0448 0.08455,-15.656451 5.868068,-0.03639 0.02453,-4.266298 -5.948959,-0.02792 c -0.138057,-4.9901794 0.769498,-3.412209 5.930909,-3.749614 l 0.0238,-4.1487716 C 47.165144,5.9249575 43.4121,5.7862776 41.671422,6.8010529 39.221115,8.2302241 39.362061,10.114328 39.297734,13.89357 Z M 100.9907,24.003348 c -1.210343,2.048204 -7.917994,8.964795 -8.220044,9.944031 1.380137,0.01439 2.770378,0.01524 4.150462,0.01609 1.449518,8.52e-4 0.915527,-0.346732 2.505208,-1.891724 1.497174,-1.455384 2.786264,-3.622762 4.210474,-4.922579 0.74712,0.524304 4.16348,4.91752 5.27912,6.236721 0.82016,0.969119 4.1577,0.556429 5.60357,0.571668 l -8.2316,-9.915319 c 0.73416,-1.561086 7.66943,-8.593559 8.26703,-10.031995 -6.23727,-0.168307 -4.63102,-0.553076 -7.89054,3.297243 -0.79917,0.944551 -2.23348,2.8659 -3.02758,3.50944 -1.0557,-1.149251 -1.94231,-2.348365 -2.99581,-3.546686 -3.34917,-3.808806 -2.16415,-3.475607 -7.897053,-3.249817 0.381481,0.723028 4.975669,6.04976 6.147668,7.464547 0.728378,0.879508 1.677815,1.481594 2.099095,2.518376 z m -39.38774,9.924585 4.060198,0.01359 c 0.723273,-6.674708 -1.242108,-14.096218 1.476237,-15.43828 0.888752,-0.43884 3.716895,-0.251148 4.868684,-0.251148 3.966962,0 6.303043,-0.986003 6.27924,4.175837 -0.01302,2.860903 -0.282569,8.994421 0.0549,11.489939 l 3.958264,0.022 c 0.216055,-2.954718 0.02604,-6.918299 0.02745,-9.936473 0.0032,-9.117009 -1.052043,-10.00749 -8.469321,-10.00749 -2.046325,0 -6.933134,-0.641832 -7.846473,1.044401 C 65.631326,14.554908 65.8279,14.652137 65.61544,14.034811 l -3.990766,-0.03377 z"
     style="fill:#ffffff;fill-rule:evenodd;stroke-width:0.563481"
     id="path857" />
</svg>
