<?xml version="1.0" encoding="UTF-8" standalone="no"?>
<svg
   xmlns:dc="http://purl.org/dc/elements/1.1/"
   xmlns:cc="http://creativecommons.org/ns#"
   xmlns:rdf="http://www.w3.org/1999/02/22-rdf-syntax-ns#"
   xmlns:svg="http://www.w3.org/2000/svg"
   xmlns="http://www.w3.org/2000/svg"
   xmlns:sodipodi="http://sodipodi.sourceforge.net/DTD/sodipodi-0.dtd"
   xmlns:inkscape="http://www.inkscape.org/namespaces/inkscape"
   version="1.1"
   width="120"
   height="40"
   id="svg846"
   viewBox="0 0 120 40"
   sodipodi:docname="levono_w.svg"
   inkscape:version="1.0.1 (3bc2e813f5, 2020-09-07)">
  <metadata
     id="metadata852">
    <rdf:RDF>
      <cc:Work
         rdf:about="">
        <dc:format>image/svg+xml</dc:format>
        <dc:type
           rdf:resource="http://purl.org/dc/dcmitype/StillImage" />
        <dc:title></dc:title>
      </cc:Work>
    </rdf:RDF>
  </metadata>
  <defs
     id="defs850" />
  <sodipodi:namedview
     pagecolor="#ffffff"
     bordercolor="#666666"
     borderopacity="1"
     objecttolerance="10"
     gridtolerance="10"
     guidetolerance="10"
     inkscape:pageopacity="0"
     inkscape:pageshadow="2"
     inkscape:window-width="2560"
     inkscape:window-height="1361"
     id="namedview848"
     showgrid="false"
     inkscape:zoom="0.99656752"
     inkscape:cx="420.94489"
     inkscape:cy="297.63779"
     inkscape:window-x="2551"
     inkscape:window-y="-9"
     inkscape:window-maximized="1"
     inkscape:current-layer="svg846" />
  <g
     id="Layer1000"
     transform="matrix(0.25418659,0,0,0.25418659,-46.998862,-55.655409)"
     style="fill:#ffffff">
    <path
       d="m 233.6324,263.7816 h 26.6529 c -6.3307,22.0431 -12.6641,44.0871 -18.9948,66.1302 h -26.6528 z"
       style="fill:#ffffff;fill-rule:evenodd"
       id="path833" />
    <path
       d="m 252.0403,315.056 c -0.0292,5.591 3.4824,16.1936 29.0842,16.437 0,0 22.6818,-0.7859 29.2861,-4.4767 l 4.9258,-12.1622 0.0896,-0.2226 c 0,0 -0.1264,0.0736 -0.3727,0.2094 l 0.2831,0.0132 h -0.2831 c -2.7398,1.4784 -20.0136,10.4479 -34.0052,7.1232 0,0 -4.1173,-0.6925 -4.1173,-4.44 l 0.2396,-1.3218 5.774,-1.3614 41.1888,-9.7054 c 0,0 10.0281,-21.8704 -28.2312,-21.344 -38.2556,0.5255 -43.2654,24.766 -43.7947,29.7748 -0.067,0.6463 -0.0651,1.1652 -0.067,1.4765 z m 25.7057,-2.0756 24.7423,-12.4547 c 0,0 2.4464,-9.6488 -8.8459,-9.4855 -11.2904,0.1632 -12.9613,10.1752 -12.9613,10.1752 z"
       style="fill:#ffffff;fill-rule:evenodd"
       id="path835" />
    <path
       d="m 354.1844,314.8541 6.76,-22.4695 c 0,0 16.1851,-2.319 14.0651,6.0249 l -4.7862,16.4446 -4.3861,15.0577 h 26.8623 l 4.4965,-15.0577 5.0032,-16.7672 c 0,0 3.2616,-9.1629 -8.1912,-11.4433 0,0 -12.4348,-3.4182 -29.6389,-2.4426 -17.2012,0.9746 -29.4728,3.2578 -29.4728,3.2578 l -8.127,27.3953 -4.4673,15.0577 h 27.3529 z"
       style="fill:#ffffff;fill-rule:evenodd"
       id="path837" />
    <path
       d="m 402.4322,314.8541 c -0.0169,-3.0615 0.9086,-5.3315 0.9086,-5.3315 0,0 2.6492,-24.0206 41.9464,-25.4848 39.2981,-1.4643 35.2204,19.4608 35.2204,19.4608 0,0 -0.366,5.3419 -4.6428,11.3489 -5.2192,7.3298 -16.2653,15.6474 -39.5867,16.4493 -29.1729,1.0086 -33.7996,-9.6592 -33.8459,-16.4427 z m 47.1487,0 c 2.786,-5.3211 3.2483,-11.3555 3.2483,-11.3555 0.6529,-3.9107 1.7907,-11.114 -7.542,-11.2801 -9.3356,-0.1594 -11.4555,9.1601 -11.4555,9.1601 l -2.6465,7.8213 c -0.566,2.2332 -0.8019,4.1041 -0.8019,5.6684 0.007,8.477 7.0363,7.9241 7.0363,7.9241 6.1901,0.1434 9.9243,-3.6644 12.1613,-7.9383 z"
       style="fill:#ffffff;fill-rule:evenodd"
       id="path839" />
    <path
       d="m 486.509,314.8541 -3.555,-29.3521 h 24.7027 l 3.6012,29.3521 0.1935,1.5482 1.0717,-1.5482 20.3694,-29.3521 h 25.7217 l -20.0166,29.3521 -10.2715,15.0577 h -39.9896 z"
       style="fill:#ffffff;fill-rule:evenodd"
       id="path841" />
    <path
       d="m 549.0616,314.8541 c -0.017,-3.0615 0.9085,-5.3315 0.9085,-5.3315 0,0 2.6493,-24.0206 41.9436,-25.4848 39.2972,-1.4643 35.2205,19.4608 35.2205,19.4608 0,0 -0.3595,5.3419 -4.64,11.3489 -5.2183,7.3298 -16.2653,15.6474 -39.5906,16.4493 -29.1728,1.0086 -33.7986,-9.6592 -33.842,-16.4427 z m 47.142,0 c 2.7899,-5.3211 3.2522,-11.3555 3.2522,-11.3555 0.6519,-3.9107 1.7973,-11.114 -7.5421,-11.2801 -9.3327,-0.1594 -11.4527,9.1601 -11.4527,9.1601 l -2.6492,7.8213 c -0.5661,2.2332 -0.802,4.1041 -0.7992,5.6684 0.004,8.477 7.0326,7.9241 7.0326,7.9241 6.1948,0.1434 9.9253,-3.6644 12.1584,-7.9383 z"
       style="fill:#ffffff;fill-rule:evenodd"
       id="path843" />
  </g>
</svg>
