<?xml version="1.0" encoding="UTF-8" standalone="no"?>
<svg
   xmlns:dc="http://purl.org/dc/elements/1.1/"
   xmlns:cc="http://creativecommons.org/ns#"
   xmlns:rdf="http://www.w3.org/1999/02/22-rdf-syntax-ns#"
   xmlns:svg="http://www.w3.org/2000/svg"
   xmlns="http://www.w3.org/2000/svg"
   xmlns:sodipodi="http://sodipodi.sourceforge.net/DTD/sodipodi-0.dtd"
   xmlns:inkscape="http://www.inkscape.org/namespaces/inkscape"
   version="1.1"
   width="120"
   height="40"
   id="svg851"
   viewBox="0 0 120 40"
   sodipodi:docname="lg_w.svg"
   inkscape:version="1.0.1 (3bc2e813f5, 2020-09-07)">
  <metadata
     id="metadata857">
    <rdf:RDF>
      <cc:Work
         rdf:about="">
        <dc:format>image/svg+xml</dc:format>
        <dc:type
           rdf:resource="http://purl.org/dc/dcmitype/StillImage" />
        <dc:title></dc:title>
      </cc:Work>
    </rdf:RDF>
  </metadata>
  <defs
     id="defs855" />
  <sodipodi:namedview
     pagecolor="#ffffff"
     bordercolor="#666666"
     borderopacity="1"
     objecttolerance="10"
     gridtolerance="10"
     guidetolerance="10"
     inkscape:pageopacity="0"
     inkscape:pageshadow="2"
     inkscape:window-width="2560"
     inkscape:window-height="1361"
     id="namedview853"
     showgrid="false"
     inkscape:zoom="9.5784511"
     inkscape:cx="58.497086"
     inkscape:cy="11.817618"
     inkscape:window-x="2551"
     inkscape:window-y="-9"
     inkscape:window-maximized="1"
     inkscape:current-layer="svg851" />
  <path
     d="m 41.324323,34.861812 c 8.210493,0 14.863698,-6.654305 14.863698,-14.862741 0,-8.206331 -6.653205,-14.8609238 -14.863698,-14.8609238 -8.207336,0 -14.86078,6.6545928 -14.86078,14.8609238 0,8.208436 6.653444,14.862741 14.86078,14.862741 z"
     style="fill:#ffffff;fill-rule:evenodd;stroke-width:0.478297"
     id="path835" />
  <path
     d="M 44.946035,25.230683 H 41.869821 V 13.598167 h -1.14356 v 12.781815 h 1.14356 v -0.0082 h 3.076214 z"
     style="fill:#ff0000;fill-rule:evenodd;stroke-width:0.478297"
     id="path837" />
  <path
     d="m 52.628105,20.474881 h -7.664086 v -1.138634 h 8.786362 c 0.01311,0.219395 0.0154,0.440559 0.0154,0.662824 0,6.873987 -5.567328,12.442655 -12.441459,12.442655 -6.870687,0 -12.441028,-5.568668 -12.441028,-12.442655 0,-6.871883 5.570341,-12.4411241 12.441028,-12.4411241 0.18137,0 0.362884,0.00531 0.545498,0.013488 v 1.128972 c -0.182614,-0.0067 -0.366567,-0.010092 -0.545498,-0.010092 -6.244501,0 -11.310813,5.0665991 -11.310813,11.3087561 0,6.249045 5.066312,11.310287 11.310813,11.310287 6.077241,0 11.037753,-4.788948 11.302826,-10.798892 z"
     style="fill:#ff0000;fill-rule:evenodd;stroke-width:0.478297"
     id="path839" />
  <path
     d="m 36.683456,17.042431 c 0.964916,0 1.748223,-0.781202 1.748223,-1.748558 0,-0.96506 -0.783307,-1.74631 -1.748223,-1.74631 -0.965299,0 -1.749658,0.78125 -1.749658,1.74631 0,0.967356 0.784359,1.748558 1.749658,1.748558 z"
     style="fill:#ff0000;fill-rule:evenodd;stroke-width:0.478297"
     id="path841" />
  <g
     id="Layer1003"
     transform="matrix(0.4782969,0,0,0.4782969,-88.319343,-157.90877)"
     style="fill:#ffffff">
    <path
       d="m 374.3543,362.7227 5.8611,-5.4948 c -5.6135,-5.6465 -9.9045,-5.7432 -16.6228,-5.6565 -9.4492,0.1221 -17.4939,5.1753 -17.4939,15.7759 v 8.4254 c 0,8.0859 6.4788,15.9503 14.7016,15.9503 2.3057,0 3.972,0 5.1731,0 4.3342,0 10.498,-0.8391 13.8754,-3.541 v -18.6823 h -14.9427 v 7.1279 h 7.2651 v 6.899 c -9.2648,2.9283 -18.3467,1.7518 -18.3467,-9.8909 v -4.2432 c 0,-7.7556 4.3304,-11.0645 10.6226,-11.0809 4.085,-0.0106 7.2395,0.1913 9.9072,4.4111 z"
       style="fill:#ffffff;fill-rule:evenodd"
       id="path844" />
    <path
       d="m 315.8485,351.5574 h 8.0512 v 33.2885 h 20.0332 v 6.8771 h -19.0486 -3.7242 -5.3116 z"
       style="fill:#ffffff;fill-rule:evenodd"
       id="path846" />
  </g>
</svg>
