<?xml version="1.0" standalone="no"?>
<!DOCTYPE svg PUBLIC "-//W3C//DTD SVG 20010904//EN"
 "http://www.w3.org/TR/2001/REC-SVG-20010904/DTD/svg10.dtd">
<svg version="1.0" xmlns="http://www.w3.org/2000/svg"
 width="250.000000pt" height="42.000000pt" viewBox="0 0 250.000000 42.000000"
 preserveAspectRatio="xMidYMid meet">
<metadata>
Created by potrace 1.16, written by Peter Selinger 2001-2019
</metadata>
<g transform="translate(0.000000,42.000000) scale(0.100000,-0.100000)"
fill="#000000" stroke="none">
<path d="M5 210 l0 -205 1245 0 1245 0 0 205 0 205 -1245 0 -1245 0 0 -205z
m1205 115 c19 -24 37 -44 40 -44 3 0 21 20 40 44 30 39 40 45 73 45 57 0 56
-20 -3 -95 l-52 -65 51 -63 c65 -78 66 -97 8 -97 -39 0 -47 4 -81 45 l-38 46
-36 -46 c-33 -40 -41 -45 -79 -45 -59 0 -57 22 8 99 l51 61 -51 61 c-65 77
-67 99 -8 99 38 0 45 -4 77 -45z m-682 -37 c20 -20 15 -58 -7 -58 -11 0 -23 5
-26 10 -3 6 -31 10 -61 10 l-54 0 0 -60 0 -60 54 0 c39 0 55 4 60 15 4 11 -1
15 -19 15 -20 0 -25 5 -25 25 0 23 4 25 45 25 l45 0 0 -55 c0 -67 -11 -75
-107 -75 -94 0 -102 8 -108 100 -7 110 2 120 108 120 51 0 88 -5 95 -12z m250
0 c7 -7 12 -22 12 -35 0 -18 -6 -23 -25 -23 -14 0 -25 5 -25 10 0 6 -27 10
-60 10 -47 0 -60 -3 -60 -15 0 -12 14 -15 63 -15 81 0 107 -17 107 -70 0 -58
-18 -70 -107 -70 -57 0 -81 4 -95 17 -27 24 -23 53 7 53 14 0 25 -4 25 -10 0
-6 27 -10 60 -10 53 0 60 2 60 20 0 18 -7 20 -75 20 -63 0 -76 3 -85 19 -15
29 -12 77 6 95 19 20 173 23 192 4z m102 5 c0 -5 15 -24 32 -42 l31 -35 37 43
c28 32 43 42 61 39 24 -3 24 -5 24 -108 0 -101 -1 -105 -22 -108 -22 -3 -23 0
-23 70 l-1 73 -38 -43 -38 -44 -36 44 -37 43 0 -72 c0 -71 -1 -73 -25 -73
l-25 0 0 110 0 110 30 0 c17 0 30 -3 30 -7z m720 -18 c0 -24 -2 -25 -65 -25
l-65 0 0 -60 0 -60 65 0 c63 0 65 -1 65 -25 0 -24 -2 -25 -73 -25 -43 0 -78 5
-85 12 -7 7 -12 44 -12 98 0 54 5 91 12 98 7 7 42 12 85 12 71 0 73 -1 73 -25z
m190 0 c0 -24 -3 -25 -60 -25 -46 0 -60 -3 -60 -14 0 -11 14 -16 47 -18 40 -3
47 -6 48 -25 2 -21 -3 -23 -47 -23 -41 0 -48 -3 -48 -20 0 -18 7 -20 60 -20
58 0 60 -1 60 -25 0 -26 0 -26 -82 -23 l-83 3 -3 94 c-1 52 -1 100 2 108 4 9
28 13 86 13 79 0 80 0 80 -25z m60 -60 l0 -85 65 0 c63 0 65 -1 65 -25 0 -25
-1 -25 -85 -25 l-85 0 0 110 c0 103 1 110 20 110 18 0 20 -7 20 -85z m188 -3
l3 -82 64 0 c63 0 65 -1 65 -25 l0 -26 -87 3 -88 3 -3 94 c-4 105 0 124 25
119 15 -3 18 -16 21 -86z"/>
<path d="M1100 349 c0 -6 23 -37 50 -69 28 -32 50 -63 50 -70 0 -7 -22 -38
-50 -70 -27 -32 -50 -63 -50 -69 0 -6 15 -11 33 -11 28 0 40 8 74 50 l41 51
43 -51 c35 -42 48 -50 76 -50 18 0 33 4 33 10 0 5 -25 39 -55 75 l-56 65 56
66 c30 36 53 70 50 75 -10 15 -54 10 -72 -9 -10 -10 -30 -32 -45 -50 l-27 -32
-47 50 c-35 37 -54 50 -75 50 -16 0 -29 -5 -29 -11z"/>
</g>
</svg>
