<?xml version="1.0" encoding="UTF-8"?>
<svg xmlns="http://www.w3.org/2000/svg" xmlns:xlink="http://www.w3.org/1999/xlink" width="129px" height="40px" viewBox="0 0 129 40" version="1.1">
<g id="surface4">
<path style=" stroke:none;fill-rule:nonzero;fill:rgb(100%,100%,100%);fill-opacity:1;" d="M 5.585938 20.871094 L 5.707031 11.9375 L 6.625 11.082031 L 7.542969 10.230469 L 20.523438 10.171875 C 33.199219 10.117188 33.519531 10.125 34.308594 10.574219 C 34.773438 10.835938 35.316406 11.441406 35.585938 11.992188 C 36.019531 12.878906 36.050781 13.554688 36.058594 21.375 L 36.0625 29.804688 L 31.675781 29.804688 L 31.675781 21.902344 C 31.675781 15.019531 31.625 13.953125 31.289062 13.640625 C 30.972656 13.347656 30.21875 13.285156 26.902344 13.285156 L 22.894531 13.285156 L 22.894531 29.804688 L 18.75 29.804688 L 18.75 13.285156 L 14.644531 13.285156 C 10.972656 13.285156 10.492188 13.332031 10.132812 13.699219 C 9.773438 14.070312 9.730469 14.976562 9.730469 21.960938 L 9.730469 29.804688 L 5.460938 29.804688 Z M 42.21875 29.355469 C 41.78125 29.105469 41.203125 28.574219 40.9375 28.167969 C 40.480469 27.46875 40.453125 27.015625 40.453125 19.960938 C 40.453125 12.910156 40.480469 12.453125 40.9375 11.757812 C 41.203125 11.351562 41.78125 10.816406 42.21875 10.570312 C 42.972656 10.140625 43.460938 10.121094 52.582031 10.121094 L 62.152344 10.117188 L 62.152344 13.285156 L 45.355469 13.285156 L 44.976562 13.789062 C 44.703125 14.152344 44.597656 14.847656 44.597656 16.277344 L 44.597656 18.257812 L 52.914062 18.320312 L 61.230469 18.378906 L 61.230469 21.546875 L 44.597656 21.664062 L 44.597656 23.648438 C 44.597656 25.078125 44.703125 25.773438 44.976562 26.132812 L 45.355469 26.636719 L 62.152344 26.636719 L 62.152344 29.804688 L 52.582031 29.804688 C 43.460938 29.804688 42.972656 29.78125 42.21875 29.355469 Z M 66.785156 19.960938 L 66.785156 10.117188 L 71.175781 10.117188 L 71.175781 29.804688 L 66.785156 29.804688 Z M 76.140625 29.476562 C 75.3125 28.9375 74.976562 27.9375 75.3125 26.996094 C 75.601562 26.183594 76.507812 25.386719 85.179688 18.289062 C 87.066406 16.75 89.191406 14.992188 89.90625 14.386719 L 91.207031 13.285156 L 75.808594 13.285156 L 75.808594 10.117188 L 95.351562 10.117188 L 96.0625 10.78125 C 96.933594 11.589844 97.019531 12.714844 96.273438 13.59375 C 95.996094 13.921875 93.003906 16.457031 89.628906 19.226562 C 86.25 21.996094 82.886719 24.792969 82.148438 25.445312 L 80.804688 26.628906 L 96.53125 26.636719 L 96.53125 29.804688 L 86.589844 29.804688 C 78.265625 29.804688 76.5625 29.75 76.140625 29.476562 Z M 102.117188 29.292969 C 100.445312 28.257812 100.433594 28.1875 100.433594 18.660156 L 100.433594 10.117188 L 104.578125 10.117188 L 104.578125 17.925781 C 104.578125 25.429688 104.597656 25.75 105.066406 26.183594 C 105.53125 26.613281 105.878906 26.636719 112.097656 26.636719 C 118.132812 26.636719 118.675781 26.605469 119.046875 26.222656 C 119.40625 25.855469 119.453125 24.945312 119.453125 17.964844 L 119.453125 10.117188 L 123.597656 10.117188 L 123.597656 18.859375 C 123.597656 27.230469 123.578125 27.632812 123.105469 28.339844 C 122.148438 29.78125 121.949219 29.804688 111.953125 29.804688 C 102.992188 29.804688 102.941406 29.804688 102.117188 29.292969 Z M 102.117188 29.292969 "/>
</g>
</svg>
