<?xml version="1.0" encoding="UTF-8" standalone="no"?>
<svg
   xmlns:dc="http://purl.org/dc/elements/1.1/"
   xmlns:cc="http://creativecommons.org/ns#"
   xmlns:rdf="http://www.w3.org/1999/02/22-rdf-syntax-ns#"
   xmlns:svg="http://www.w3.org/2000/svg"
   xmlns="http://www.w3.org/2000/svg"
   xmlns:sodipodi="http://sodipodi.sourceforge.net/DTD/sodipodi-0.dtd"
   xmlns:inkscape="http://www.inkscape.org/namespaces/inkscape"
   version="1.1"
   id="svg923"
   xml:space="preserve"
   width="120"
   height="40"
   viewBox="0 0 120 40"
   sodipodi:docname="nokia_w.svg"
   inkscape:version="1.0.1 (3bc2e813f5, 2020-09-07)"><metadata
     id="metadata929"><rdf:RDF><cc:Work
         rdf:about=""><dc:format>image/svg+xml</dc:format><dc:type
           rdf:resource="http://purl.org/dc/dcmitype/StillImage" /><dc:title></dc:title></cc:Work></rdf:RDF></metadata><defs
     id="defs927"><clipPath
       clipPathUnits="userSpaceOnUse"
       id="clipPath943"><path
         d="M 0,288 H 288 V 0 H 0 Z"
         id="path941" /></clipPath><clipPath
       clipPathUnits="userSpaceOnUse"
       id="clipPath967"><path
         d="M 66.981,229.851 H 229.474 V 261.46 H 66.981 Z"
         id="path965" /></clipPath><clipPath
       clipPathUnits="userSpaceOnUse"
       id="clipPath979"><path
         d="M 0,288 H 288 V 0 H 0 Z"
         id="path977" /></clipPath></defs><sodipodi:namedview
     pagecolor="#ffffff"
     bordercolor="#666666"
     borderopacity="1"
     objecttolerance="10"
     gridtolerance="10"
     guidetolerance="10"
     inkscape:pageopacity="0"
     inkscape:pageshadow="2"
     inkscape:window-width="2560"
     inkscape:window-height="1361"
     id="namedview925"
     showgrid="false"
     inkscape:zoom="2.625"
     inkscape:cx="192"
     inkscape:cy="192"
     inkscape:window-x="2551"
     inkscape:window-y="-9"
     inkscape:window-maximized="1"
     inkscape:current-layer="g931" /><g
     id="g931"
     inkscape:groupmode="layer"
     inkscape:label="Nokia"
     transform="matrix(1.3333333,0,0,-1.3333333,0,384)"><g
       id="g1560"
       transform="matrix(0.43046721,0,0,0.43046721,-17.019863,228.56766)"
       style="fill:#ffffff"><g
         id="g933"
         transform="translate(85.1826,95.8047)"
         style="fill:#ffffff"><path
           d="M 0,0 0.039,22.033 8.622,22.07 8.66,-7.281 H -6.283 l -17.932,22.149 -0.038,-22.071 -8.622,-0.078 -0.077,29.314 0.115,0.037 h 14.944 z"
           style="fill:#ffffff;fill-opacity:1;fill-rule:nonzero;stroke:none"
           id="path935" /></g><g
         id="g937"
         style="fill:#ffffff"><g
           id="g939"
           clip-path="url(#clipPath943)"
           style="fill:#ffffff"><g
             id="g945"
             transform="translate(190.1719,117.8379)"
             style="fill:#ffffff"><path
               d="m 0,0 0.076,-29.314 h -9.158 l -0.039,29.275 0.077,0.076 C -6.017,0.037 -2.989,0.076 0,0"
               style="fill:#ffffff;fill-opacity:1;fill-rule:evenodd;stroke:none"
               id="path947" /></g><g
             id="g949"
             transform="translate(149.1328,103.6992)"
             style="fill:#ffffff"><path
               d="M 0,0 0.039,-0.038 1.15,0.881 15.825,14.139 H 28.011 L 11.228,-0.077 11.267,-0.23 30.156,-15.098 16.859,-15.176 0.079,-0.153 0,-0.27 V -15.176 H -9.157 V 14.139 H 0 Z"
               style="fill:#ffffff;fill-opacity:1;fill-rule:evenodd;stroke:none"
               id="path951" /></g><g
             id="g953"
             transform="translate(107.7139,110.9395)"
             style="fill:#ffffff"><path
               d="m 0,0 c -0.767,-0.152 -1.725,-0.459 -1.84,-1.34 0,-4.368 -0.115,-8.813 0.077,-13.142 0.268,-0.729 1.073,-0.653 1.647,-0.842 l 16.554,-0.039 c 1.417,0.115 3.104,-0.231 3.87,1.187 l 0.038,12.375 -0.116,0.959 c -0.229,0.575 -0.804,0.653 -1.302,0.805 z m 17.97,7.244 c 3.794,-0.153 7.893,-0.422 9.924,-4.178 0.46,-1.033 0.69,-2.144 0.651,-3.41 l -0.038,-15.939 c -0.114,-2.147 -1.61,-4.024 -3.448,-5.059 -3.985,-1.724 -8.813,-1.303 -13.45,-1.416 -5.479,0.076 -11.111,-0.269 -16.208,0.651 -2.26,0.345 -4.674,2.222 -5.287,4.482 l -0.307,1.84 0.077,16.896 c 0.076,2.147 1.954,4.024 3.755,4.983 2.95,1.226 6.514,1.073 9.924,1.226 z"
               style="fill:#ffffff;fill-opacity:1;fill-rule:evenodd;stroke:none"
               id="path955" /></g><g
             id="g957"
             transform="translate(213.9648,110.4805)"
             style="fill:#ffffff"><path
               d="M 0,0 -5.633,-10.461 H 5.634 C 3.757,-6.975 1.877,-3.449 0,0 m 21.956,-21.84 v -0.117 H 11.841 c -0.919,1.689 -1.839,3.297 -2.683,4.982 l -0.191,0.077 H -9.004 l -2.759,-4.981 -10.229,-0.078 16.13,29.314 H 5.979 Z"
               style="fill:#ffffff;fill-opacity:1;fill-rule:evenodd;stroke:none"
               id="path959" /></g></g></g></g></g></svg>
