<?xml version="1.0" encoding="UTF-8" standalone="no"?>
<!-- Created with Inkscape (http://www.inkscape.org/) -->

<svg
   xmlns:dc="http://purl.org/dc/elements/1.1/"
   xmlns:cc="http://creativecommons.org/ns#"
   xmlns:rdf="http://www.w3.org/1999/02/22-rdf-syntax-ns#"
   xmlns:svg="http://www.w3.org/2000/svg"
   xmlns="http://www.w3.org/2000/svg"
   xmlns:sodipodi="http://sodipodi.sourceforge.net/DTD/sodipodi-0.dtd"
   xmlns:inkscape="http://www.inkscape.org/namespaces/inkscape"
   width="120"
   height="40"
   viewBox="0 0 31.749999 10.583334"
   version="1.1"
   id="svg110"
   inkscape:version="0.92.4 (5da689c313, 2019-01-14)"
   sodipodi:docname="oppo_w.svg">
  <defs
     id="defs104" />
  <sodipodi:namedview
     id="base"
     pagecolor="#ffffff"
     bordercolor="#666666"
     borderopacity="1.0"
     inkscape:pageopacity="0.0"
     inkscape:pageshadow="2"
     inkscape:zoom="1.979899"
     inkscape:cx="3.4017214"
     inkscape:cy="114.26724"
     inkscape:document-units="mm"
     inkscape:current-layer="layer1"
     showgrid="false"
     units="px"
     inkscape:window-width="2560"
     inkscape:window-height="1361"
     inkscape:window-x="-9"
     inkscape:window-y="-9"
     inkscape:window-maximized="1" />
  <metadata
     id="metadata107">
    <rdf:RDF>
      <cc:Work
         rdf:about="">
        <dc:format>image/svg+xml</dc:format>
        <dc:type
           rdf:resource="http://purl.org/dc/dcmitype/StillImage" />
        <dc:title></dc:title>
      </cc:Work>
    </rdf:RDF>
  </metadata>
  <g
     inkscape:label="Layer 1"
     inkscape:groupmode="layer"
     id="layer1"
     transform="translate(0,-286.41665)">
    <g
       id="g85"
       transform="matrix(0.08231749,0,0,-0.0823175,-8.202827,327.7961)"
       style="stroke-width:3.00525928;fill:#ffffff">
      <path
         d="m 423.768,430.429 c -16.694,0 -30.225,7.415 -30.225,16.562 0,9.146 13.531,16.561 30.225,16.561 16.694,0 30.225,-7.415 30.225,-16.561 -10e-4,-9.147 -13.532,-16.562 -30.225,-16.562 m 5.933,37.425 c -23.496,0 -42.541,-9.487 -42.541,-21.188 0,-11.702 19.045,-21.19 42.541,-21.19 23.496,0 42.541,9.488 42.541,21.19 0,11.701 -19.045,21.188 -42.541,21.188"
         style="fill:#ffffff;fill-opacity:1;fill-rule:nonzero;stroke:none;stroke-width:3.00525928"
         id="path30"
         inkscape:connector-curvature="0" />
      <path
         d="m 341.209,467.854 c -7.602,0 -14.734,-0.995 -20.908,-2.734 v -3.744 c 4.412,1.384 9.523,2.175 14.972,2.175 16.694,0 30.226,-7.415 30.226,-16.561 0,-9.147 -13.531,-16.561 -30.226,-16.561 -11.687,0 -21.815,3.639 -26.845,8.957 v 12.41 h -0.012 v 16.57 h -15.355 v -59.937 h 15.367 v 24.731 c 7.802,-4.694 19.59,-7.684 32.781,-7.684 23.496,0 42.541,9.487 42.541,21.189 0,11.702 -19.045,21.189 -42.541,21.189"
         style="fill:#ffffff;fill-opacity:1;fill-rule:nonzero;stroke:none;stroke-width:3.00525928"
         id="path32"
         inkscape:connector-curvature="0" />
      <path
         d="m 247.801,467.854 c -7.602,0 -14.734,-0.995 -20.908,-2.734 v -3.744 c 4.412,1.384 9.523,2.175 14.973,2.175 16.693,0 30.226,-7.415 30.226,-16.561 0,-9.147 -13.532,-16.561 -30.226,-16.561 -11.688,0 -21.818,3.639 -26.847,8.957 v 12.41 h -0.012 v 16.57 h -15.354 v -59.937 h 15.366 v 24.731 c 7.804,-4.694 19.592,-7.684 32.782,-7.684 23.495,0 42.541,9.487 42.541,21.189 0,11.702 -19.045,21.189 -42.541,21.189"
         style="fill:#ffffff;fill-opacity:1;fill-rule:nonzero;stroke:none;stroke-width:3.00525928"
         id="path34"
         inkscape:connector-curvature="0" />
      <path
         d="m 149.363,430.429 c -16.692,0 -30.224,7.415 -30.224,16.562 0,9.146 13.531,16.561 30.224,16.561 16.693,0 30.224,-7.415 30.224,-16.561 0.001,-9.147 -13.53,-16.562 -30.224,-16.562 m 5.935,37.425 c -23.495,0 -42.541,-9.487 -42.541,-21.188 0,-11.702 19.046,-21.19 42.541,-21.19 23.496,0 42.542,9.488 42.542,21.19 0,11.701 -19.046,21.188 -42.542,21.188"
         style="fill:#ffffff;fill-opacity:1;fill-rule:nonzero;stroke:none;stroke-width:3.00525928"
         id="path36"
         inkscape:connector-curvature="0" />
    </g>
  </g>
</svg>
