<?xml version="1.0" encoding="UTF-8" standalone="no"?>
<!-- Created with Inkscape (http://www.inkscape.org/) -->

<svg
   xmlns:dc="http://purl.org/dc/elements/1.1/"
   xmlns:cc="http://creativecommons.org/ns#"
   xmlns:rdf="http://www.w3.org/1999/02/22-rdf-syntax-ns#"
   xmlns:svg="http://www.w3.org/2000/svg"
   xmlns="http://www.w3.org/2000/svg"
   xmlns:sodipodi="http://sodipodi.sourceforge.net/DTD/sodipodi-0.dtd"
   xmlns:inkscape="http://www.inkscape.org/namespaces/inkscape"
   width="120"
   height="40"
   viewBox="0 0 31.749999 10.583334"
   version="1.1"
   id="svg8"
   inkscape:version="0.92.4 (5da689c313, 2019-01-14)"
   sodipodi:docname="samsung_w.svg">
  <defs
     id="defs2">
    <clipPath
       id="clipPath26"
       clipPathUnits="userSpaceOnUse">
      <path
         inkscape:connector-curvature="0"
         id="path24"
         d="M 0,841.89 H 595.276 V 0 H 0 Z" />
    </clipPath>
  </defs>
  <sodipodi:namedview
     id="base"
     pagecolor="#ffffff"
     bordercolor="#666666"
     borderopacity="1.0"
     inkscape:pageopacity="0.0"
     inkscape:pageshadow="2"
     inkscape:zoom="1.4"
     inkscape:cx="305.41146"
     inkscape:cy="174.37307"
     inkscape:document-units="mm"
     inkscape:current-layer="layer1"
     showgrid="false"
     units="px"
     inkscape:window-width="2560"
     inkscape:window-height="1361"
     inkscape:window-x="-9"
     inkscape:window-y="-9"
     inkscape:window-maximized="1" />
  <metadata
     id="metadata5">
    <rdf:RDF>
      <cc:Work
         rdf:about="">
        <dc:format>image/svg+xml</dc:format>
        <dc:type
           rdf:resource="http://purl.org/dc/dcmitype/StillImage" />
        <dc:title></dc:title>
      </cc:Work>
    </rdf:RDF>
  </metadata>
  <g
     inkscape:label="Layer 1"
     inkscape:groupmode="layer"
     id="layer1"
     transform="translate(0,-286.41665)">
    <g
       id="g194"
       transform="matrix(0.3025,0,0,0.3025,-5.1631559,256.90247)"
       style="stroke-width:3.30578518;fill:#ffffff">
      <g
         transform="matrix(0.35277777,0,0,-0.35277777,74.907716,114.48125)"
         id="g28"
         style="stroke-width:3.30578518;fill:#ffffff">
        <path
           inkscape:connector-curvature="0"
           id="path30"
           style="fill:#ffffff;fill-opacity:1;fill-rule:evenodd;stroke:none;stroke-width:3.30578518"
           d="m 0,0 c 0,0 -2.832,1.909 -4.591,2.638 0,0 -5.413,2.73 -6.487,4.042 0,0 -2.115,2.17 -0.885,4.675 0,0 0.525,1.651 2.761,1.651 0,0 2.903,-0.183 2.903,-2.779 V 6.562 H 4.122 l -0.024,5.405 c 0,0 0.799,8.834 -12.272,9.222 0,0 -10.279,0.73 -13.229,-5.285 0,0 -1.159,-1.34 -1.159,-6.017 V 6.51 c 0,0 -0.109,-3.911 1.721,-6.419 0,0 1.037,-1.649 3.584,-3.468 0,0 5.174,-3.028 8.281,-4.769 0,0 3.144,-1.95 2.725,-5.041 0,0 -0.25,-3.183 -3.274,-3.052 0,0 -2.773,0.141 -2.773,3.259 v 3.664 h -11.1 v -5.327 c 0,0 -0.312,-10.173 13.956,-10.173 0,0 13.623,-0.299 14.256,10.433 v 4.34 c 0,0 0.478,6.575 -4.814,10.043" />
      </g>
      <g
         transform="matrix(0.35277777,0,0,-0.35277777,57.666408,107.4543)"
         id="g32"
         style="stroke-width:3.30578518;fill:#ffffff">
        <path
           inkscape:connector-curvature="0"
           id="path34"
           style="fill:#ffffff;fill-opacity:1;fill-rule:evenodd;stroke:none;stroke-width:3.30578518"
           d="m 0,0 -3.488,-23.764 h -0.815 l -3.333,23.555 h -17.398 l -0.872,-43.032 h 10.301 l 0.118,32.418 h 0.814 l 5.46,-32.418 H 1.625 l 5.401,32.403 H 7.745 L 7.982,-43.241 H 18.344 L 17.233,0 Z" />
      </g>
      <g
         transform="matrix(0.35277777,0,0,-0.35277777,36.818406,107.5189)"
         id="g36"
         style="stroke-width:3.30578518;fill:#ffffff">
        <path
           inkscape:connector-curvature="0"
           id="path38"
           style="fill:#ffffff;fill-opacity:1;fill-rule:evenodd;stroke:none;stroke-width:3.30578518"
           d="M 0,0 -6.858,-43.017 H 4.231 l 4.063,33.351 h 0.909 l 4.063,-33.351 H 24.354 L 17.494,0 Z" />
      </g>
      <g
         transform="matrix(0.35277777,0,0,-0.35277777,112.62809,114.27456)"
         id="g40"
         style="stroke-width:3.30578518;fill:#ffffff">
        <path
           inkscape:connector-curvature="0"
           id="path42"
           style="fill:#ffffff;fill-opacity:1;fill-rule:evenodd;stroke:none;stroke-width:3.30578518"
           d="m 0,0 v -6.342 h 2.843 v -6.808 c 0,-3.325 -2.616,-3.392 -2.616,-3.392 -3.192,0 -3.072,3.159 -3.072,3.159 v 23.568 c 0,2.429 2.832,2.56 2.832,2.56 2.712,0 2.726,-2.897 2.726,-2.897 V 6.261 h 10.443 c 0.347,6.991 -0.931,8.691 -0.931,8.691 -2.593,6.329 -12.393,5.991 -12.393,5.991 -15.069,0 -13.395,-12.577 -13.395,-12.577 v -22.79 C -13.241,-26.193 1.602,-25 1.852,-25 c 6.608,0.809 8.592,3.094 8.592,3.094 1.839,1.48 2.305,3.519 2.305,3.519 0.527,1.211 0.658,5.004 0.658,5.004 V 0 Z" />
      </g>
      <g
         transform="matrix(0.35277777,0,0,-0.35277777,101.20172,116.7409)"
         id="g44"
         style="stroke-width:3.30578518;fill:#ffffff">
        <path
           inkscape:connector-curvature="0"
           id="path46"
           style="fill:#ffffff;fill-opacity:1;fill-rule:evenodd;stroke:none;stroke-width:3.30578518"
           d="m 0,0 h -0.453 l -10.601,26.324 h -12.679 v -43.252 h 10.326 L -14.03,9.381 h 0.456 L -2.592,-16.928 H 9.704 V 26.324 H -0.74 Z" />
      </g>
      <g
         transform="matrix(0.35277777,0,0,-0.35277777,85.516908,118.91355)"
         id="g48"
         style="stroke-width:3.30578518;fill:#ffffff">
        <path
           inkscape:connector-curvature="0"
           id="path50"
           style="fill:#ffffff;fill-opacity:1;fill-rule:evenodd;stroke:none;stroke-width:3.30578518"
           d="m 0,0 c 0,0 0.155,-3.544 -2.88,-3.544 0,0 -3.179,-0.199 -3.179,3.465 L -6.096,32.457 H -17.411 V 0.183 c 0,0 -1.159,-12.226 14.685,-12.226 0,0 13.791,-0.168 13.791,11.653 V 32.457 H 0 Z" />
      </g>
      <g
         transform="matrix(0.35277777,0,0,-0.35277777,29.991944,114.48125)"
         id="g52"
         style="stroke-width:3.30578518;fill:#ffffff">
        <path
           inkscape:connector-curvature="0"
           id="path54"
           style="fill:#ffffff;fill-opacity:1;fill-rule:evenodd;stroke:none;stroke-width:3.30578518"
           d="m 0,0 c 0,0 -2.832,1.909 -4.589,2.638 0,0 -5.413,2.73 -6.489,4.042 0,0 -2.114,2.17 -0.872,4.675 0,0 0.513,1.651 2.749,1.651 0,0 2.904,-0.183 2.904,-2.779 V 6.562 h 10.42 l -0.024,5.405 c 0,0 0.801,8.834 -12.273,9.222 0,0 -0.979,0.068 -2.426,-0.011 0,0 -7.91,-0.455 -10.743,-5.185 -0.011,-0.026 -0.035,-0.052 -0.059,-0.089 0,0 -1.148,-1.34 -1.148,-6.017 V 6.51 c 0,0 -0.119,-3.898 1.71,-6.419 0,0 1.039,-1.649 3.585,-3.468 0,0 5.173,-3.028 8.292,-4.769 0,0 3.131,-1.95 2.726,-5.041 0,0 -0.264,-3.183 -3.286,-3.052 0,0 -2.773,0.141 -2.773,3.259 v 3.664 h -11.102 v -5.327 c 0,0 -0.31,-10.173 13.957,-10.173 0,0 13.624,-0.299 14.257,10.433 v 4.34 c 0,0 0.478,6.575 -4.816,10.043" />
      </g>
    </g>
  </g>
</svg>
