<?xml version="1.0" encoding="UTF-8" standalone="no"?>
<svg
   xmlns:dc="http://purl.org/dc/elements/1.1/"
   xmlns:cc="http://creativecommons.org/ns#"
   xmlns:rdf="http://www.w3.org/1999/02/22-rdf-syntax-ns#"
   xmlns:svg="http://www.w3.org/2000/svg"
   xmlns="http://www.w3.org/2000/svg"
   xmlns:sodipodi="http://sodipodi.sourceforge.net/DTD/sodipodi-0.dtd"
   xmlns:inkscape="http://www.inkscape.org/namespaces/inkscape"
   viewBox="0 0 120 40"
   height="40"
   width="120"
   xml:space="preserve"
   id="svg2"
   version="1.1"
   sodipodi:docname="vivo_w.svg"
   inkscape:version="0.92.4 (5da689c313, 2019-01-14)"><sodipodi:namedview
     pagecolor="#ffffff"
     bordercolor="#666666"
     borderopacity="1"
     objecttolerance="10"
     gridtolerance="10"
     guidetolerance="10"
     inkscape:pageopacity="0"
     inkscape:pageshadow="2"
     inkscape:window-width="2560"
     inkscape:window-height="1361"
     id="namedview218"
     showgrid="false"
     inkscape:zoom="1.3190838"
     inkscape:cx="-72.540018"
     inkscape:cy="-143.05981"
     inkscape:window-x="-9"
     inkscape:window-y="-9"
     inkscape:window-maximized="1"
     inkscape:current-layer="svg2" /><metadata
     id="metadata8"><rdf:RDF><cc:Work
         rdf:about=""><dc:format>image/svg+xml</dc:format><dc:type
           rdf:resource="http://purl.org/dc/dcmitype/StillImage" /><dc:title></dc:title></cc:Work></rdf:RDF></metadata><defs
     id="defs6" /><path
     id="path14"
     style="fill:#ffffff;fill-opacity:1;fill-rule:evenodd;stroke:none;stroke-width:0.13333333"
     d="m 88.323385,15.237609 c 0.91216,-0.174095 7.218707,-0.07682 8.667371,-0.07682 1.298367,0 3.022224,-0.118512 4.215174,0.190226 6.15161,1.581068 6.10802,11.231032 -0.56286,12.37335 -0.983868,0.172817 -7.181175,0.07427 -8.687813,0.07427 -1.25476,0 -3.097768,0.117873 -4.211496,-0.180963 -3.609831,-0.977646 -5.31628,-4.886315 -4.178914,-8.35096 0.665074,-2.033237 2.360342,-3.573736 4.758538,-4.029097 z M 109.585,22.680082 c 0.43668,-4.059124 -1.3121,-7.287226 -3.50202,-9.09334 -1.15861,-0.957201 -2.4295,-1.674025 -4.24951,-2.102074 -1.57165,-0.367996 -4.313721,-0.213226 -6.10371,-0.213226 -2.115009,0 -4.233058,0.0018 -6.351904,-0.0013 -2.050166,-0.0013 -3.586832,0.463507 -5.06552,1.313857 -6.238502,3.585074 -6.586533,12.383411 -1.440514,16.785613 3.192483,2.730893 6.288336,2.335267 10.340593,2.335267 2.120598,0 4.235622,0.0031 6.353187,0 5.114718,-0.0062 9.437858,-3.612388 10.019398,-9.024819 z M 49.428531,14.049611 c 0.112284,0.663796 1.171067,2.062624 1.554076,2.619088 l 5.026228,7.381461 c 0.980841,1.449938 2.333989,3.531409 3.345336,4.923368 1.022048,1.403141 2.778968,2.939807 5.45859,2.816822 2.518784,-0.11356 3.918731,-1.704531 5.000035,-3.267391 1.091845,-1.58586 2.192316,-3.255573 3.344057,-4.924487 l 5.874182,-8.631749 c 1.182247,-1.758198 -0.304586,-3.679789 -2.026527,-3.34278 -1.082422,0.210192 -1.552319,1.17538 -2.108783,2.024451 l -3.344058,4.927683 c -1.108776,1.607102 -2.222503,3.309239 -3.346134,4.921931 -0.572756,0.823676 -1.091206,1.618443 -1.670831,2.464479 -0.464146,0.67881 -1.216586,1.921591 -2.477416,1.616526 -0.940911,-0.228399 -1.589214,-1.39691 -2.053999,-2.092012 -0.560778,-0.837253 -1.085617,-1.603429 -1.670192,-2.462563 -1.113569,-1.635852 -2.181137,-3.191844 -3.346613,-4.924967 -1.126187,-1.682171 -2.172991,-3.220115 -3.344697,-4.922091 -0.525958,-0.759947 -1.106859,-1.816815 -2.531881,-1.559825 -1.018854,0.182879 -1.902265,1.16931 -1.681373,2.432056 z m -39.059684,-0.0567 c 0.09982,0.724969 1.164838,2.07061 1.539797,2.627234 l 6.690095,9.842745 c 1.657734,2.48684 3.273622,5.469771 7.079589,5.332571 3.511923,-0.126178 4.960583,-3.070936 6.75376,-5.72133 l 5.014888,-7.382097 c 0.532826,-0.804192 1.103665,-1.628347 1.679616,-2.457453 0.63265,-0.920307 1.420549,-1.818093 1.275843,-2.837586 -0.149178,-1.049999 -1.115485,-1.969028 -2.368967,-1.789982 -1.093763,0.156686 -1.561582,1.093124 -2.148713,1.983403 -1.141838,1.717628 -2.183692,3.21133 -3.338467,4.927044 -1.122513,1.65949 -2.201262,3.28544 -3.34853,4.923847 -0.587131,0.840926 -1.091846,1.618443 -1.676421,2.462563 -0.485389,0.706282 -1.16372,1.920952 -2.433973,1.689518 -1.005757,-0.181602 -1.57468,-1.32328 -2.11054,-2.088818 -2.76651,-3.941889 -5.640192,-8.278608 -8.364169,-12.307864 -0.553398,-0.820961 -1.124269,-1.799245 -2.523703,-1.588415 -1.01197,0.152852 -1.889807,1.134172 -1.720105,2.38462 z m 34.175127,-2.36162 C 42.488219,12.061896 42.8182,13.817538 42.8182,15.967528 v 12.227845 c 0,1.019493 -0.143428,1.952897 0.35937,2.697191 0.964549,1.435564 3.221871,1.093763 3.720997,-0.541451 0.194698,-0.6384 0.09232,-8.042221 0.09232,-9.048616 0,-2.037069 -6.39e-4,-4.0735 -6.39e-4,-6.112965 0,-1.033228 0.141032,-1.929736 -0.349308,-2.683455 -0.364481,-0.551514 -1.149345,-1.07252 -2.096964,-0.874786 z m 0.09104,-7.348238 C 44.279958,4.4239261 44.057947,4.736019 43.814533,4.9773559 L 42.31093,6.4710573 c -0.978286,0.9881875 -0.175213,1.3763071 1.048241,2.6059913 0.264497,0.2664135 0.484112,0.479799 0.751803,0.7455735 0.978923,0.9814789 1.33446,0.2608229 2.624679,-1.021889 C 48.514454,7.0275218 48.461427,7.3943986 45.689486,4.6480133 45.456774,4.4153012 45.144202,4.0789309 44.635015,4.283053"
     inkscape:connector-curvature="0" /></svg>