<?xml version="1.0" encoding="UTF-8" standalone="no"?>
<svg
   xmlns:dc="http://purl.org/dc/elements/1.1/"
   xmlns:cc="http://creativecommons.org/ns#"
   xmlns:rdf="http://www.w3.org/1999/02/22-rdf-syntax-ns#"
   xmlns:svg="http://www.w3.org/2000/svg"
   xmlns="http://www.w3.org/2000/svg"
   xmlns:sodipodi="http://sodipodi.sourceforge.net/DTD/sodipodi-0.dtd"
   xmlns:inkscape="http://www.inkscape.org/namespaces/inkscape"
   version="1.1"
   width="120"
   height="40"
   id="svg835"
   viewBox="0 0 120 40"
   sodipodi:docname="vsmart_w.svg"
   inkscape:version="0.92.4 (5da689c313, 2019-01-14)">
  <metadata
     id="metadata841">
    <rdf:RDF>
      <cc:Work
         rdf:about="">
        <dc:format>image/svg+xml</dc:format>
        <dc:type
           rdf:resource="http://purl.org/dc/dcmitype/StillImage" />
        <dc:title />
      </cc:Work>
    </rdf:RDF>
  </metadata>
  <defs
     id="defs839" />
  <sodipodi:namedview
     pagecolor="#ffffff"
     bordercolor="#666666"
     borderopacity="1"
     objecttolerance="10"
     gridtolerance="10"
     guidetolerance="10"
     inkscape:pageopacity="0"
     inkscape:pageshadow="2"
     inkscape:window-width="2560"
     inkscape:window-height="1361"
     id="namedview837"
     showgrid="false"
     inkscape:zoom="7.6339869"
     inkscape:cx="90.855692"
     inkscape:cy="41.047879"
     inkscape:window-x="-9"
     inkscape:window-y="-9"
     inkscape:window-maximized="1"
     inkscape:current-layer="svg835" />
  <g
     style="fill:#ffffff;stroke-width:5.29819059"
     id="Layer1001"
     transform="matrix(0.18874368,0,0,0.18874368,-30.742497,-37.755566)">
    <path
       inkscape:connector-curvature="0"
       id="path815"
       style="fill:#ffffff;fill-rule:evenodd;stroke-width:5.29819059"
       d="m 191.6719,246.366 c 0,16.2121 7.2679,28.2307 15.1133,39.9685 l 10.9314,16.8371 c 0.6764,1.0699 1.0611,1.8446 1.7224,2.8298 0.5981,0.891 1.2734,1.8328 1.809,2.7433 3.3962,5.7724 6.9616,13.1228 7.7201,20.0484 0.3375,3.0822 0.0322,5.6017 0.0273,8.1532 -0.006,3.1399 -0.5093,5.2589 -1.1773,7.9311 -0.53,2.1196 -2.0045,5.7322 -2.0045,7.5551 h -0.4553 c 0,-2.6251 -1.8458,-11.166 -2.7816,-14.0615 -1.4835,-4.5906 -3.3099,-7.7431 -5.7831,-11.5153 l -26.2149,-42.0683 c -3.0613,-5.0261 -8.9216,-18.1604 -8.9216,-25.6751 0,-3.7472 1.2227,-4.2612 1.8208,-6.8284 -2.3931,1.6027 -3.0844,2.4244 -5.1217,4.4379 -4.5605,4.5073 -8.5349,13.2078 -8.5349,20.144 0,14.5791 2.8937,21.8723 9.4045,33.8415 l 28.6804,46.8864 c 3.1808,6.3411 8.8029,20.4968 8.8029,29.4357 0,2.1205 -0.3083,7.8492 -0.9105,9.1043 1.4437,-0.5226 0.5217,0.0891 1.4017,-1.3296 l 4.8744,-7.8717 c 0.4042,-0.6376 0.8733,-1.2386 1.28,-1.9066 l 22.0258,-35.332 c 8.9566,-15.2488 4.5223,-36.0361 -2.57,-50.2206 -7.8579,-15.7151 -37.4819,-56.5992 -37.4819,-70.4056 0,-8.3749 5.1196,-10.6497 6.8282,-13.2013 -6.1262,1.4273 -11.56,5.3685 -14.9421,10.5501 -3.0038,4.6019 -5.5428,12.4472 -5.5428,19.9496 z" />
    <path
       inkscape:connector-curvature="0"
       id="path817"
       style="fill:#ffffff;fill-rule:evenodd;stroke-width:5.29819059"
       d="m 242.6566,274.5897 c 0,6.4486 0.2865,8.8125 3.033,14.7208 6.0518,13.0189 14.7207,19.4402 14.7207,29.4357 0,14.2079 -2.312,21.7561 -7.4656,34.4146 -0.6483,1.5921 -1.253,2.1681 -1.6388,3.8239 l 15.0089,-22.7743 c 8.2491,-14.0591 17.6165,-23.5339 6.2048,-40.7751 -5.115,-7.7278 -12.9614,-15.8965 -14.3895,-24.7634 -1.0518,-6.5303 1.6193,-10.0599 7.2876,-11.3805 -4.48,-3.1131 -22.7611,-1.4055 -22.7611,17.2983 z" />
  </g>
  <path
     inkscape:connector-curvature="0"
     id="path820"
     style="fill:#ffffff;fill-rule:evenodd;stroke-width:1"
     d="M 32.420219,30.122402 23.180775,11.704754 h 2.906432 l 6.363602,13.27787 6.363577,-13.308462 h 2.800426 z" />
  <path
     inkscape:connector-curvature="0"
     id="path822"
     style="fill:#ffffff;fill-rule:evenodd;stroke-width:1"
     d="m 48.714718,18.007716 c 0.734084,-0.493195 1.428711,-1.052105 2.162763,-1.545302 -1.580718,-2.113146 -4.998244,-2.211758 -7.117745,-1.398855 -2.455659,1.097489 -3.412925,4.658548 -0.835181,6.56222 1.566123,1.444039 6.575125,0.562081 4.974346,3.872058 -0.4021,0.934919 -3.305275,1.197126 -4.289982,-0.172105 -0.676715,0.573504 -1.379655,1.01559 -2.056374,1.589096 2.216623,2.352545 5.344435,2.090107 7.368632,1.106127 2.407429,-1.243473 2.719786,-4.724322 0.825848,-6.572248 -1.531331,-1.466218 -6.019201,-0.934951 -5.631966,-2.808466 0.188222,-2.216064 3.788508,-2.009007 4.599659,-0.63253 z" />
  <path
     inkscape:connector-curvature="0"
     id="path824"
     style="fill:#ffffff;fill-rule:evenodd;stroke-width:1"
     d="m 55.357606,28.945649 0.02824,-14.635838 7.289681,5.650899 7.459203,-5.622633 v 14.607572 l -2.627692,-1.949584 v -7.289616 l -4.803272,3.644807 -4.718496,-3.67311 v 7.204941 z" />
  <path
     inkscape:connector-curvature="0"
     id="path826"
     style="fill:#ffffff;fill-rule:evenodd;stroke-width:1"
     d="m 73.151443,28.776099 7.388962,-14.393463 7.416597,14.393463 h -3.158198 l -0.9524,-1.94922 h -6.593467 l -0.958751,1.94922 z m 9.596151,-4.198055 -2.186965,-4.476053 -2.201564,4.476053 z" />
  <path
     inkscape:connector-curvature="0"
     id="path828"
     style="fill:#ffffff;fill-rule:evenodd;stroke-width:1"
     d="m 91.307957,14.464996 h 7.863963 c 2.35524,0 4.28228,1.927008 4.28228,4.282267 v 0 c 0,1.914892 -1.29665,3.672878 -3.03873,4.216195 l 3.30229,5.863784 h -2.94673 l -3.174016,-5.797644 h -3.701682 v 5.797644 H 91.307957 V 23.029598 20.674935 16.99047 14.788408 Z m 2.587375,6.083685 h 5.081408 c 1.01323,0 1.84222,-0.702738 1.84222,-1.715979 v 0 c 0,-1.013274 -0.82899,-1.842232 -1.84222,-1.842232 h -5.081408 z" />
  <path
     inkscape:connector-curvature="0"
     id="path830"
     style="fill:#ffffff;fill-rule:evenodd;stroke-width:1"
     d="m 106.04198,14.492603 h 12.07701 v 2.554239 h -4.6622 v 11.779407 h -2.55427 V 17.046842 h -4.86054 z" />
  <path
     d="m 100.1245,-561.8755 v 591.751 h 591.751 v -591.751 z"
     style="fill:none"
     id="path833"
     inkscape:connector-curvature="0" />
</svg>
