<?xml version="1.0" encoding="UTF-8" standalone="no"?>
<svg
   xmlns:dc="http://purl.org/dc/elements/1.1/"
   xmlns:cc="http://creativecommons.org/ns#"
   xmlns:rdf="http://www.w3.org/1999/02/22-rdf-syntax-ns#"
   xmlns:svg="http://www.w3.org/2000/svg"
   xmlns="http://www.w3.org/2000/svg"
   xmlns:sodipodi="http://sodipodi.sourceforge.net/DTD/sodipodi-0.dtd"
   xmlns:inkscape="http://www.inkscape.org/namespaces/inkscape"
   width="120"
   height="40"
   version="1.1"
   viewBox="0 0 31.7502 10.5834"
   id="svg15272"
   sodipodi:docname="xiaomi_w.svg"
   inkscape:version="1.0.1 (3bc2e813f5, 2020-09-07)">
  <metadata
     id="metadata15276">
    <rdf:RDF>
      <cc:Work
         rdf:about="">
        <dc:format>image/svg+xml</dc:format>
        <dc:type
           rdf:resource="http://purl.org/dc/dcmitype/StillImage" />
        <dc:title />
      </cc:Work>
    </rdf:RDF>
  </metadata>
  <sodipodi:namedview
     pagecolor="#ffffff"
     bordercolor="#666666"
     borderopacity="1"
     objecttolerance="10"
     gridtolerance="10"
     guidetolerance="10"
     inkscape:pageopacity="0"
     inkscape:pageshadow="2"
     inkscape:window-width="2560"
     inkscape:window-height="1361"
     id="namedview15274"
     showgrid="false"
     inkscape:zoom="2.92"
     inkscape:cx="133.89841"
     inkscape:cy="64.229093"
     inkscape:window-x="2551"
     inkscape:window-y="-9"
     inkscape:window-maximized="1"
     inkscape:current-layer="svg15272"
     inkscape:document-rotation="0" />
  <defs
     id="defs15254">
    <clipPath
       id="clipPath831">
      <path
         d="M 0,595.28 H 841.89 V 0 H 0 Z"
         id="path15251"
         inkscape:connector-curvature="0" />
    </clipPath>
  </defs>
  <g
     style="fill:#ffffff;stroke-width:2.4623"
     id="g15264"
     transform="matrix(0.18508837,0,0,-0.18510127,-96.691771,68.76125)">
    <path
       inkscape:connector-curvature="0"
       id="path15258"
       d="m 637.87,362.27 h -8.221 c -0.352,0 -0.637,-0.28 -0.637,-0.625 v -37.509 c 0,-0.342 0.285,-0.622 0.637,-0.622 h 8.221 c 0.349,0 0.638,0.28 0.638,0.622 v 37.509 c 0,0.345 -0.289,0.625 -0.638,0.625"
       style="stroke-width:2.4623" />
    <path
       inkscape:connector-curvature="0"
       id="path15260"
       d="m 609.8,362.27 h -31.315 c -0.352,0 -0.635,-0.28 -0.635,-0.625 v -37.509 c 0,-0.342 0.283,-0.622 0.635,-0.622 h 8.223 c 0.35,0 0.64,0.28 0.64,0.622 v 29.439 c 0,0.34 0.283,0.622 0.635,0.622 h 17.713 c 4.981,0 6.395,-3.815 6.395,-6.276 v -23.785 c 0,-0.342 0.286,-0.622 0.638,-0.622 h 8.218 c 0.35,0 0.637,0.28 0.637,0.622 v 26.609 c 0,2.195 -0.264,5.351 -3.096,8.129 -2.963,2.9 -5.666,3.396 -8.688,3.396"
       style="stroke-width:2.4623" />
    <path
       inkscape:connector-curvature="0"
       id="path15262"
       d="m 604.04,347.33 h -8.633 c -0.352,0 -0.641,-0.28 -0.641,-0.623 v -22.574 c 0,-0.341 0.289,-0.621 0.641,-0.621 h 8.633 c 0.349,0 0.635,0.28 0.635,0.621 v 22.574 c 0,0.343 -0.286,0.623 -0.635,0.623"
       style="stroke-width:2.4623" />
  </g>
</svg>
